<svg xmlns="http://www.w3.org/2000/svg" viewBox="0 0 18.33 18.34"><defs><style>.cls-1{fill:#213450;}</style></defs><title>Ativo 8</title><g id="Camada_2" data-name="Camada 2"><g id="Camada_1-2" data-name="Camada 1"><path class="cls-1" d="M9.17,1.42A7.75,7.75,0,1,1,1.42,9.17,7.76,7.76,0,0,1,9.17,1.42M9.17,0a9.17,9.17,0,1,0,9.16,9.17A9.17,9.17,0,0,0,9.17,0"/><path class="cls-1" d="M9.17,10a.7.7,0,0,1-.5-.21L5.3,6.37a.7.7,0,0,1,0-1,.72.72,0,0,1,1,0L9.17,8.24,12,5.37a.71.71,0,0,1,1,1L9.67,9.74a.7.7,0,0,1-.5.21"/><path class="cls-1" d="M12.92,13.44H5.13a.7.7,0,0,1-.7-.71v-2a.71.71,0,1,1,1.41,0V12h6.38V10.89a.71.71,0,1,1,1.41,0v1.84a.71.71,0,0,1-.71.71"/></g></g></svg>