<svg xmlns="http://www.w3.org/2000/svg" viewBox="0 0 66.09 66.14"><defs><style>.cls-1{fill:#c4d545;}</style></defs><title>Ativo 5</title><g id="Camada_2" data-name="Camada 2"><g id="Camada_1-2" data-name="Camada 1"><path class="cls-1" d="M16.22,19.88A16.24,16.24,0,0,0,0,36.1c0,5.55,2.64,11.52,7.85,17.74.77.93,1.55,1.78,2.29,2.57C6.77,57.32,4.75,59,4.75,60.9c0,3.41,5.91,5.24,11.47,5.24s11.46-1.83,11.46-5.24c0-1.93-2-3.57-5.38-4.49a52,52,0,0,0,4.16-4.95,1,1,0,1,0-1.56-1.15,52.81,52.81,0,0,1-5,5.79,1,1,0,0,0-.42.42c-1.4,1.37-2.58,2.4-3.25,2.95-.66-.55-1.82-1.56-3.21-2.92a1,1,0,0,0-.48-.48c-4.4-4.42-10.59-12-10.59-20a14.28,14.28,0,0,1,28.56,0,21.9,21.9,0,0,1-3.49,11,1,1,0,0,0,1.67,1,23.78,23.78,0,0,0,3.76-12A16.24,16.24,0,0,0,16.22,19.88m-.6,41.61a1,1,0,0,0,.6.2.92.92,0,0,0,.59-.2A47,47,0,0,0,20.71,58c3.27.67,5,1.95,5,2.88,0,.69-.94,1.5-2.47,2.12a19.13,19.13,0,0,1-7,1.19c-5.82,0-9.53-2-9.53-3.31,0-.93,1.76-2.21,5-2.88a49.24,49.24,0,0,0,3.89,3.47"/><path class="cls-1" d="M16.22,29.05A7,7,0,0,0,12,30.45,1,1,0,1,0,13.16,32a5.05,5.05,0,1,1-1.86,2.69,1,1,0,0,0-1.86-.54,7.05,7.05,0,1,0,6.78-5.1"/><path class="cls-1" d="M58.49,28.18c.49-.53,1-1.1,1.51-1.71,4-4.82,6.09-9.46,6.09-13.78A12.69,12.69,0,0,0,41.71,7.75a1,1,0,1,0,1.78.76,10.75,10.75,0,0,1,20.66,4.18c0,8-8.42,15.69-10.75,17.67-.52-.44-1.33-1.15-2.28-2.08a.94.94,0,0,0-.43-.43c-3.35-3.37-8-9.16-8-15.16a1,1,0,1,0-1.94,0c0,4.32,2,9,6.08,13.78.51.61,1,1.18,1.51,1.71-2.5.75-3.94,2-3.94,3.57,0,1.3,1,2.44,3,3.22a16.49,16.49,0,0,0,6.07,1,16.57,16.57,0,0,0,6.07-1c1.91-.78,3-1.92,3-3.22,0-1.54-1.44-2.82-3.94-3.57M53.4,34.06c-4.6,0-7.1-1.52-7.1-2.31,0-.51,1.14-1.45,3.57-2a38.77,38.77,0,0,0,2.93,2.6,1,1,0,0,0,.6.2.92.92,0,0,0,.59-.2,38.77,38.77,0,0,0,2.93-2.6,8.93,8.93,0,0,1,2.68,1c.56.34.89.71.89,1,0,.79-2.5,2.31-7.09,2.31"/><path class="cls-1" d="M53.4,7A5.65,5.65,0,1,0,59,12.69,5.66,5.66,0,0,0,53.4,7m0,9.35a3.7,3.7,0,1,1,3.7-3.7,3.71,3.71,0,0,1-3.7,3.7"/><path class="cls-1" d="M40.82,30.78h-.45a7.73,7.73,0,0,0-1,.06,1,1,0,0,0,.13,1.93h.12a5.63,5.63,0,0,1,.71,0h.45a1,1,0,0,0,0-1.94"/><path class="cls-1" d="M37.61,59.88H36.32a1,1,0,1,0,0,1.93h1.28a1,1,0,0,0,0-1.94"/><path class="cls-1" d="M42,43.34H40.69a1,1,0,0,0,0,1.94H42a1,1,0,0,0,0-1.94"/><path class="cls-1" d="M36.83,32.75a1,1,0,0,0-1.37,0,6.83,6.83,0,0,0-1,1.1,1,1,0,0,0,.22,1.36,1,1,0,0,0,.57.18,1,1,0,0,0,.78-.4,5.64,5.64,0,0,1,.72-.82,1,1,0,0,0,.06-1.37"/><path class="cls-1" d="M42.73,59.86H41.45a1,1,0,1,0,0,1.94h1.29a1,1,0,0,0,0-1.94"/><path class="cls-1" d="M32.48,59.9H31.2a1,1,0,0,0,0,1.94h1.29a1,1,0,0,0,0-1.94"/><path class="cls-1" d="M37.54,42.53a6.11,6.11,0,0,1-.85-.67,1,1,0,1,0-1.34,1.4,7.39,7.39,0,0,0,1.16.91,1,1,0,0,0,1.34-.31,1,1,0,0,0-.31-1.33"/><path class="cls-1" d="M35.16,39.05a5,5,0,0,1-.1-1V38a1,1,0,0,0-1-1h0a1,1,0,0,0-1,1V38a8,8,0,0,0,.13,1.39,1,1,0,0,0,1,.79l.18,0a1,1,0,0,0,.77-1.14"/><path class="cls-1" d="M47.09,43.34H45.81a1,1,0,0,0,0,1.94h1.28a1,1,0,0,0,0-1.94"/><path class="cls-1" d="M62.66,45.32a8.44,8.44,0,0,0-1.18-.8,1,1,0,1,0-1,1.69,6.7,6.7,0,0,1,.94.63,1,1,0,0,0,1.36-.16,1,1,0,0,0-.16-1.36"/><path class="cls-1" d="M59.06,60.55A1,1,0,0,0,58,59.72a6.24,6.24,0,0,1-1,.07h-.18a1,1,0,1,0,0,1.94H57a8.48,8.48,0,0,0,1.23-.09,1,1,0,0,0,.82-1.09"/><path class="cls-1" d="M63.34,57.82a1,1,0,0,0-1.37,0,6.58,6.58,0,0,1-.87.71,1,1,0,0,0-.25,1.35,1,1,0,0,0,.8.42,1,1,0,0,0,.55-.17,8.81,8.81,0,0,0,1.11-.91,1,1,0,0,0,0-1.37"/><path class="cls-1" d="M65.23,53.11a1,1,0,0,0-1.13.78A6.64,6.64,0,0,1,63.8,55a1,1,0,0,0,.59,1.24,1,1,0,0,0,1.24-.58A9.75,9.75,0,0,0,66,54.25a1,1,0,0,0-.78-1.14"/><path class="cls-1" d="M65.81,50a9.88,9.88,0,0,0-.5-1.34A1,1,0,0,0,64,48.18a1,1,0,0,0-.47,1.29,6.74,6.74,0,0,1,.39,1.06,1,1,0,0,0,.94.7.82.82,0,0,0,.26,0,1,1,0,0,0,.67-1.2"/><path class="cls-1" d="M52.22,43.34H50.93a1,1,0,0,0,0,1.94h1.29a1,1,0,0,0,0-1.94"/><path class="cls-1" d="M47.86,59.83H46.57a1,1,0,0,0,0,1.94h1.28a1,1,0,0,0,0-1.94"/><path class="cls-1" d="M57.38,43.35H56.06a1,1,0,0,0,0,1.94h1.28a1,1,0,0,0,0-1.94"/><path class="cls-1" d="M53,59.81H51.7a1,1,0,0,0-1,1,1,1,0,0,0,1,1H53a1,1,0,0,0,0-1.94"/></g></g></svg>