<svg xmlns="http://www.w3.org/2000/svg" viewBox="0 0 67.05 60.34"><defs><style>.cls-1{fill:#c4d545;}</style></defs><title>Ativo 6</title><g id="Camada_2" data-name="Camada 2"><g id="Camada_1-2" data-name="Camada 1"><path class="cls-1" d="M6.74,36.87a6.67,6.67,0,0,0,2.33-.43l6.89,12a6.7,6.7,0,1,0,10.77,6.34h13.6A6.7,6.7,0,1,0,51.1,48.39l6.9-12A6.7,6.7,0,1,0,58,23.9L51.1,12A6.7,6.7,0,1,0,40.33,5.61H26.73A6.7,6.7,0,1,0,16,12L9.07,23.9A6.7,6.7,0,0,0,4.33,36.44a6.84,6.84,0,0,0,2.41.43M11,35.33a6.73,6.73,0,0,0,2.33-4h6.85a13.27,13.27,0,0,0,5.7,9.88L22.35,47.3a6.6,6.6,0,0,0-4.43,0Zm11.36-5.16a11.16,11.16,0,1,1,3,7.61,11.16,11.16,0,0,1-3-7.61M20.14,58.08a4.47,4.47,0,1,1,4.46-4.46,4.46,4.46,0,0,1-4.46,4.46M40.33,52.5H26.73a6.68,6.68,0,0,0-2.42-4.11l3.53-6.12a13.15,13.15,0,0,0,11.39,0l3.53,6.12a6.69,6.69,0,0,0-2.43,4.11M51.4,53.62a4.47,4.47,0,1,1-4.47-4.47,4.46,4.46,0,0,1,4.47,4.47M49.15,47.3a6.6,6.6,0,0,0-4.43,0l-3.55-6.13a13.28,13.28,0,0,0,5.71-9.88h6.85a6.73,6.73,0,0,0,2.33,4ZM60.33,25.7a4.47,4.47,0,1,1-4.47,4.47,4.47,4.47,0,0,1,4.47-4.47M56.06,25a6.76,6.76,0,0,0-2.33,4H46.88a13.28,13.28,0,0,0-5.71-9.88L44.72,13a6.6,6.6,0,0,0,4.43,0ZM46.93,2.26a4.47,4.47,0,1,1-4.46,4.46,4.47,4.47,0,0,1,4.46-4.46M26.73,7.84h13.6A6.74,6.74,0,0,0,42.76,12l-3.53,6.11a13.17,13.17,0,0,0-11.4,0L24.3,12a6.69,6.69,0,0,0,2.43-4.12M15.67,6.72a4.47,4.47,0,1,1,4.47,4.47,4.47,4.47,0,0,1-4.47-4.47M17.92,13a6.6,6.6,0,0,0,4.43,0l3.54,6.13a13.27,13.27,0,0,0-5.7,9.88H13.34A6.76,6.76,0,0,0,11,25ZM6.74,25.7a4.47,4.47,0,1,1-4.47,4.47A4.47,4.47,0,0,1,6.74,25.7"/></g></g></svg>