<svg xmlns="http://www.w3.org/2000/svg" viewBox="0 0 48.4 59.64"><defs><style>.cls-1{fill:#c4d545;}</style></defs><title>Ativo 7</title><g id="Camada_2" data-name="Camada 2"><g id="Camada_1-2" data-name="Camada 1"><path class="cls-1" d="M41.47,32H11.1a.88.88,0,0,0,0,1.75H41.47a.88.88,0,1,0,0-1.75"/><path class="cls-1" d="M41.47,37.62H11.1a.88.88,0,0,0,0,1.75H41.47a.88.88,0,1,0,0-1.75"/><path class="cls-1" d="M41.47,43.25H11.1a.88.88,0,0,0,0,1.75H41.47a.88.88,0,1,0,0-1.75"/><path class="cls-1" d="M41.47,48.88H11.1a.88.88,0,0,0,0,1.75H41.47a.88.88,0,1,0,0-1.75"/><path class="cls-1" d="M41.47,20.47H30.31a.87.87,0,0,0,0,1.74H41.47a.87.87,0,1,0,0-1.74"/><path class="cls-1" d="M41.47,15.85H30.31a.88.88,0,0,0,0,1.75H41.47a.88.88,0,1,0,0-1.75"/><path class="cls-1" d="M47.52,48.59a.87.87,0,0,0,.88-.88V8.53A3.44,3.44,0,0,0,45,5.1H43.3V3.44A3.44,3.44,0,0,0,39.86,0H3.44A3.44,3.44,0,0,0,0,3.44V51.11a3.44,3.44,0,0,0,3.44,3.44H5.1v1.66a3.44,3.44,0,0,0,3.43,3.43H45a3.44,3.44,0,0,0,3.44-3.43V51.8a.88.88,0,1,0-1.75,0v4.41A1.69,1.69,0,0,1,45,57.9H8.53a1.69,1.69,0,0,1-1.69-1.69V8.53A1.69,1.69,0,0,1,8.53,6.84H45a1.69,1.69,0,0,1,1.69,1.69V47.71a.87.87,0,0,0,.87.88M5.1,8.53V52.8H3.44a1.69,1.69,0,0,1-1.69-1.69V3.44A1.69,1.69,0,0,1,3.44,1.75H39.86a1.69,1.69,0,0,1,1.69,1.69V5.1h-33A3.44,3.44,0,0,0,5.1,8.53"/><path class="cls-1" d="M11,17.26a.87.87,0,0,0-.87.87v6.6a2.68,2.68,0,0,0,2.39,2.66c.33,0,9.74,0,9.75,0h0a2.68,2.68,0,0,0,2.39-2.66V13.33A2.68,2.68,0,0,0,22,10.66H12.84a2.68,2.68,0,0,0-2.68,2.67V14a.88.88,0,0,0,1.75,0v-.69a.92.92,0,0,1,.93-.92H22a.92.92,0,0,1,.92.92v9a7.62,7.62,0,0,0-2.36-1.69,3.74,3.74,0,1,0-6.32,0,7.62,7.62,0,0,0-2.36,1.69V18.13a.87.87,0,0,0-.88-.87m6.4-.67a2,2,0,1,1-2,2,2,2,0,0,1,2-2m-1.72,5.32a3.73,3.73,0,0,0,3.44,0,5.83,5.83,0,0,1,3.67,3.31,1,1,0,0,1-.7.43c-.05,0-9.23,0-9.36,0h0a.91.91,0,0,1-.69-.43,5.79,5.79,0,0,1,3.66-3.31"/></g></g></svg>