<?xml version="1.0" encoding="utf-8"?>
<!-- Generator: Adobe Illustrator 23.0.0, SVG Export Plug-In . SVG Version: 6.00 Build 0)  -->
<svg version="1.0" id="Camada_1" xmlns="http://www.w3.org/2000/svg" xmlns:xlink="http://www.w3.org/1999/xlink" x="0px" y="0px"
	 viewBox="0 0 70.6 39.3" enable-background="new 0 0 70.6 39.3" xml:space="preserve">
<g>
	<path fill="#0D3050" d="M0,27.7h2.6v9.1H8v2.3H0V27.7z M17,38.2c-0.1,0.1-0.2,0.2-0.4,0.3c-0.2,0.1-0.4,0.3-0.7,0.4
		c-0.3,0.1-0.6,0.2-1,0.3c-0.4,0.1-0.9,0.1-1.4,0.1c-0.7,0-1.3-0.1-1.8-0.3c-0.5-0.2-1-0.5-1.4-0.9c-0.4-0.4-0.7-0.8-0.9-1.4
		c-0.2-0.5-0.3-1.1-0.3-1.7c0-0.6,0.1-1.1,0.3-1.6c0.2-0.5,0.5-1,0.8-1.4c0.4-0.4,0.8-0.7,1.3-0.9c0.5-0.2,1.1-0.3,1.7-0.3
		c0.6,0,1.2,0.1,1.7,0.3c0.5,0.2,0.9,0.5,1.2,0.9c0.3,0.4,0.6,0.9,0.8,1.4c0.2,0.6,0.3,1.2,0.3,1.8v0.4h-5.7c0,0.4,0.2,0.8,0.6,1.1
		c0.4,0.3,0.9,0.5,1.5,0.5c0.6,0,1.2-0.1,1.5-0.3c0.4-0.2,0.7-0.3,0.9-0.5L17,38.2z M14.9,34.2c0-0.2,0-0.3-0.1-0.5
		c-0.1-0.2-0.2-0.3-0.3-0.5c-0.1-0.1-0.3-0.3-0.5-0.4c-0.2-0.1-0.4-0.1-0.7-0.1c-0.3,0-0.5,0-0.7,0.1c-0.2,0.1-0.4,0.2-0.5,0.4
		c-0.1,0.1-0.2,0.3-0.3,0.5c-0.1,0.2-0.1,0.3-0.1,0.5H14.9z M18.6,31.1H21L21,32c0.2-0.3,0.6-0.6,1-0.8c0.4-0.2,0.8-0.3,1.4-0.3
		c0.3,0,0.6,0,0.9,0.1c0.2,0.1,0.5,0.2,0.7,0.3c0.2,0.1,0.4,0.2,0.5,0.4c0.1,0.1,0.3,0.3,0.3,0.4c0.3-0.4,0.7-0.6,1.2-0.8
		s1-0.3,1.5-0.3c1,0,1.8,0.3,2.3,0.9c0.5,0.6,0.8,1.4,0.8,2.4v4.9h-2.5v-4.5c0-0.5-0.1-0.8-0.3-1.1c-0.2-0.3-0.5-0.4-0.9-0.4
		c-0.5,0-0.9,0.2-1.1,0.5c-0.3,0.3-0.4,0.7-0.4,1.3v4.3h-2.4v-4.5c0-0.5-0.1-0.8-0.3-1.1C23.4,33.1,23,33,22.6,33
		c-0.5,0-0.8,0.2-1.1,0.5c-0.3,0.3-0.4,0.7-0.4,1.3v4.3h-2.5V31.1z M37.9,38.3c-0.3,0.3-0.6,0.6-1,0.7c-0.4,0.2-0.9,0.3-1.4,0.3
		c-0.3,0-0.6,0-0.9-0.1c-0.3-0.1-0.6-0.2-0.9-0.4c-0.3-0.2-0.5-0.4-0.7-0.8c-0.2-0.3-0.3-0.7-0.3-1.2c0-0.5,0.1-0.9,0.3-1.2
		c0.2-0.4,0.4-0.7,0.8-0.9c0.3-0.2,0.7-0.4,1.2-0.6c0.4-0.1,0.9-0.2,1.5-0.2c0.3,0,0.6,0,0.9,0c0.3,0,0.5,0,0.6,0.1v-0.2
		c0-0.2,0-0.4-0.1-0.5c-0.1-0.1-0.2-0.3-0.3-0.4c-0.1-0.1-0.3-0.2-0.5-0.2c-0.2,0-0.4-0.1-0.6-0.1c-0.5,0-1,0.1-1.4,0.2
		s-0.7,0.3-0.9,0.5l-1-1.5c0.2-0.1,0.4-0.2,0.6-0.4c0.2-0.1,0.5-0.2,0.8-0.3c0.3-0.1,0.6-0.2,1-0.2c0.4-0.1,0.8-0.1,1.3-0.1
		c1.2,0,2.1,0.3,2.7,1c0.6,0.7,0.9,1.5,0.9,2.6v4.7H38L37.9,38.3z M37.9,35.5c-0.1,0-0.2,0-0.3,0c-0.2,0-0.3,0-0.5,0
		c-0.7,0-1.2,0.1-1.4,0.3c-0.3,0.2-0.4,0.5-0.4,0.8c0,0.7,0.4,1,1.2,1c0.2,0,0.4,0,0.6-0.1c0.2-0.1,0.4-0.2,0.5-0.3
		c0.1-0.1,0.3-0.3,0.3-0.4c0.1-0.2,0.1-0.4,0.1-0.6V35.5z M42.1,31.1h2.4l0.1,0.9c0.3-0.3,0.6-0.6,1-0.8c0.4-0.2,0.9-0.3,1.3-0.3
		c0.9,0,1.6,0.3,2.2,0.8c0.5,0.5,0.8,1.4,0.8,2.4v4.9h-2.5v-4.6c0-0.4-0.1-0.8-0.3-1.1c-0.2-0.3-0.5-0.4-0.9-0.4
		c-0.3,0-0.5,0-0.7,0.1c-0.2,0.1-0.4,0.2-0.5,0.4c-0.1,0.2-0.2,0.3-0.3,0.6c-0.1,0.2-0.1,0.4-0.1,0.7v4.3h-2.4V31.1z M51.7,31.1H54
		l0.1,0.9c0.3-0.3,0.6-0.6,1-0.8c0.4-0.2,0.9-0.3,1.3-0.3c0.9,0,1.6,0.3,2.2,0.8c0.5,0.5,0.8,1.4,0.8,2.4v4.9H57v-4.6
		c0-0.4-0.1-0.8-0.3-1.1c-0.2-0.3-0.5-0.4-0.9-0.4c-0.3,0-0.5,0-0.7,0.1c-0.2,0.1-0.4,0.2-0.5,0.4c-0.1,0.2-0.2,0.3-0.3,0.6
		c-0.1,0.2-0.1,0.4-0.1,0.7v4.3h-2.4V31.1z"/>
	<path fill="#0D3050" d="M0,20.7h3.2V21H0.4v2h2.2v0.4H0.4V26H0V20.7z M4.1,20.7h0.4v3c0,0.3,0,0.6,0.1,0.8c0,0.3,0.1,0.5,0.3,0.7
		c0.1,0.2,0.3,0.3,0.5,0.4c0.2,0.1,0.5,0.2,0.8,0.2c0.3,0,0.6-0.1,0.8-0.2c0.2-0.1,0.4-0.2,0.5-0.4c0.1-0.2,0.2-0.4,0.3-0.7
		c0-0.3,0.1-0.5,0.1-0.8v-3h0.4v3.2c0,0.3,0,0.6-0.1,0.9C8,25,7.9,25.3,7.7,25.5c-0.2,0.2-0.4,0.4-0.6,0.5c-0.3,0.1-0.6,0.2-1,0.2
		c-0.4,0-0.7-0.1-1-0.2c-0.3-0.1-0.5-0.3-0.6-0.5c-0.2-0.2-0.3-0.4-0.3-0.7c-0.1-0.3-0.1-0.6-0.1-0.9V20.7z M9.5,20.7h0.4l3.4,4.7
		v-4.7h0.4V26h-0.4l-3.4-4.7V26H9.5V20.7z M19.2,22.1c-0.1-0.3-0.3-0.6-0.6-0.8c-0.3-0.2-0.6-0.4-0.9-0.5c-0.4-0.1-0.8-0.2-1.2-0.2
		H15V26h1.4c0.4,0,0.8-0.1,1.2-0.2c0.4-0.1,0.7-0.3,0.9-0.5c0.3-0.2,0.5-0.5,0.6-0.8c0.1-0.3,0.2-0.7,0.2-1.2
		C19.4,22.9,19.3,22.5,19.2,22.1 M18.8,24.3c-0.1,0.3-0.3,0.5-0.5,0.7c-0.2,0.2-0.5,0.3-0.8,0.4c-0.3,0.1-0.6,0.1-1,0.1h-1.1V21h1.1
		c0.4,0,0.7,0,1.1,0.1c0.3,0.1,0.6,0.2,0.8,0.4c0.2,0.2,0.4,0.4,0.5,0.7s0.2,0.6,0.2,1C19,23.7,18.9,24.1,18.8,24.3 M22.4,20.7H22
		L19.8,26h0.4l0.7-1.7h2.5l0.7,1.7h0.4L22.4,20.7z M21.1,23.9l1.1-2.7l1.1,2.7H21.1z M29.4,25.1c0,0.1-0.1,0.1-0.2,0.2
		c-0.1,0.1-0.2,0.2-0.4,0.3c-0.2,0.1-0.3,0.2-0.6,0.3c-0.2,0.1-0.5,0.1-0.8,0.1c-0.4,0-0.7-0.1-1-0.2c-0.3-0.1-0.6-0.3-0.8-0.6
		c-0.2-0.2-0.4-0.5-0.5-0.9C25,24.1,25,23.7,25,23.3c0-0.4,0.1-0.7,0.2-1.1c0.1-0.3,0.3-0.6,0.5-0.9c0.2-0.3,0.5-0.4,0.8-0.6
		c0.3-0.1,0.7-0.2,1-0.2c0.3,0,0.6,0,0.8,0.1c0.2,0.1,0.4,0.2,0.6,0.3c0.2,0.1,0.3,0.2,0.4,0.3c0.1,0.1,0.1,0.2,0.2,0.2l-0.3,0.2
		c0,0-0.1-0.1-0.2-0.2c-0.1-0.1-0.2-0.2-0.3-0.3c-0.1-0.1-0.3-0.2-0.5-0.3c-0.2-0.1-0.4-0.1-0.7-0.1c-0.3,0-0.6,0.1-0.9,0.2
		c-0.3,0.1-0.5,0.3-0.7,0.5c-0.2,0.2-0.3,0.5-0.4,0.8c-0.1,0.3-0.1,0.6-0.1,0.9c0,0.3,0.1,0.7,0.2,0.9c0.1,0.3,0.2,0.6,0.4,0.8
		c0.2,0.2,0.4,0.4,0.7,0.5c0.3,0.1,0.6,0.2,0.9,0.2c0.2,0,0.5,0,0.7-0.1c0.2-0.1,0.3-0.2,0.5-0.3c0.1-0.1,0.2-0.2,0.3-0.3
		c0.1-0.1,0.1-0.2,0.2-0.2L29.4,25.1z M26.7,27.2c0.1,0,0.2,0.1,0.3,0.1c0.1,0,0.2,0,0.4,0c0.4,0,0.6-0.1,0.6-0.4
		c0-0.2-0.2-0.3-0.5-0.3c-0.1,0-0.2,0-0.3,0c-0.1,0-0.2,0-0.3,0.1l0.1-0.3c0.1,0,0.2-0.1,0.3-0.1c0.1,0,0.2,0,0.4,0
		c0.1,0,0.3,0,0.4,0.1c0.1,0,0.2,0.1,0.2,0.1c0.1,0.1,0.1,0.1,0.1,0.2c0,0.1,0,0.1,0,0.2c0,0.2-0.1,0.4-0.3,0.5
		c-0.2,0.1-0.4,0.2-0.7,0.2c-0.2,0-0.3,0-0.5-0.1c-0.1,0-0.2-0.1-0.3-0.1L26.7,27.2z M31,19.7c0.1-0.1,0.2-0.2,0.4-0.3
		c0.1-0.1,0.3-0.1,0.4-0.1c0.1,0,0.2,0,0.3,0.1c0.1,0,0.2,0.1,0.2,0.1c0.1,0,0.2,0.1,0.2,0.1c0.1,0,0.2,0.1,0.2,0.1
		c0.1,0,0.2,0,0.3-0.1c0.1,0,0.2-0.1,0.3-0.2l0.2,0.2c-0.1,0.1-0.2,0.2-0.4,0.3C33.1,20,33,20,32.8,20c-0.1,0-0.2,0-0.3-0.1
		c-0.1,0-0.2-0.1-0.2-0.1c-0.1,0-0.2-0.1-0.2-0.1c-0.1,0-0.2-0.1-0.3-0.1c-0.1,0-0.2,0-0.3,0.1c-0.1,0-0.2,0.1-0.3,0.2L31,19.7z
		 M32.5,20.7h-0.4L29.9,26h0.4l0.7-1.7h2.5l0.7,1.7h0.4L32.5,20.7z M31.2,23.9l1.1-2.7l1.1,2.7H31.2z M40.1,22.2
		c-0.1-0.3-0.3-0.6-0.5-0.9c-0.2-0.3-0.5-0.4-0.8-0.6c-0.3-0.1-0.7-0.2-1.1-0.2c-0.4,0-0.7,0.1-1.1,0.2s-0.6,0.3-0.8,0.6
		c-0.2,0.3-0.4,0.5-0.5,0.9C35.1,22.6,35,23,35,23.3c0,0.4,0.1,0.8,0.2,1.1c0.1,0.3,0.3,0.6,0.5,0.9c0.2,0.2,0.5,0.4,0.8,0.6
		c0.3,0.1,0.7,0.2,1.1,0.2c0.4,0,0.7-0.1,1.1-0.2c0.3-0.1,0.6-0.3,0.8-0.6c0.2-0.2,0.4-0.5,0.5-0.9c0.1-0.3,0.2-0.7,0.2-1.1
		C40.3,23,40.2,22.6,40.1,22.2 M39.7,24.3c-0.1,0.3-0.3,0.6-0.4,0.8c-0.2,0.2-0.4,0.4-0.7,0.5c-0.3,0.1-0.6,0.2-0.9,0.2
		c-0.3,0-0.6-0.1-0.9-0.2c-0.3-0.1-0.5-0.3-0.7-0.5c-0.2-0.2-0.3-0.5-0.4-0.8c-0.1-0.3-0.2-0.6-0.2-0.9c0-0.3,0.1-0.6,0.2-0.9
		c0.1-0.3,0.3-0.6,0.4-0.8c0.2-0.2,0.4-0.4,0.7-0.5c0.3-0.1,0.6-0.2,0.9-0.2c0.3,0,0.6,0.1,0.9,0.2c0.3,0.1,0.5,0.3,0.7,0.5
		c0.2,0.2,0.3,0.5,0.4,0.8c0.1,0.3,0.2,0.6,0.2,0.9C39.9,23.7,39.8,24,39.7,24.3"/>
	<path fill="#BED631" d="M65.8,0c-0.1,0-0.1,0-0.2,0.1c-0.4,1-0.9,2.4-4.3,5.8c-0.5,0.5,0,0.9,0.4,0.9c0.1,0,0.3,0,0.4-0.2
		c1.5-1.6,2.8-3,3.8-4.7c0.1-0.3,0.6-1.2,0.6-1.4C66.4,0.4,66.1,0,65.8,0"/>
	<path fill="#0D3050" d="M69.6,0.2c0.5,0,1.1,0.8,1,2.7c-0.1,1.5-0.9,3-1.5,4c-0.2,0.3-0.5,0.1-0.6,0c-0.1-0.1-0.4-0.4-0.1-0.8
		c2-3.2,1.6-4.9,1.3-5.8C69.5,0.2,69.5,0.2,69.6,0.2"/>
	<path fill="#2CB781" d="M69.1,9C69,9,68.9,9,68.8,9.1c-0.2,0.2-0.4,0.6-0.6,0.8c-0.1,0.1-0.2,0.3-0.2,0.5c0,0.2,0.1,0.3,0.2,0.4
		c0.1,0.1,0.2,0.1,0.4,0.1c0.1,0,0.2-0.1,0.3-0.2c0.2-0.3,0.5-0.7,0.6-0.9c0.1-0.1,0.1-0.2,0.1-0.3C69.7,9.3,69.4,9,69.1,9"/>
	<path fill="#0D3050" d="M56.8,1.5c-0.1,0-0.2,0-0.3,0.1c-0.4,0.3-1.1,0.9-1.7,1.4c-0.3,0.2-0.1,0.7,0.2,0.7c0.1,0,0.2,0,0.4-0.1
		c0.4-0.4,1.5-1.2,1.7-1.4C57.3,1.9,57.1,1.5,56.8,1.5"/>
	<path fill="#BED631" d="M54.3,4.6c-0.1,0-0.2,0-0.3,0.2c-1.9,1.7-3.2,3-4.2,4.1c-1.2,1.3-2,2.5-2.7,3.7c1,1.7,1,1.7,1.3,1.3
		c0.1-0.2,0.2-0.3,0.3-0.5c1.5-2.2,3-4.1,6.8-7.5c-0.4-0.6-0.7-0.9-0.8-1C54.4,4.6,54.4,4.6,54.3,4.6"/>
	<path fill="#0D3050" d="M49.7,7.7c1.3-1.3,2.3-2.3,3.4-3.2c0.2-0.2,0.3-0.3,0.3-0.5c0-0.2-0.1-0.3-0.3-0.3c-0.1,0-0.2,0-0.3,0.2
		c-1.1,0.9-1.3,1.2-2.3,2.1c-0.2-0.5-0.3-0.8-0.4-1c-0.1-0.3-0.3-0.3-0.5-0.1c-1.1,1.1-1.8,1.8-2.2,2.2c-0.5,0.6-0.5,0.9-0.5,1.1
		c0.1,0.3,0.3,0.8,0.4,1.2c-1.5,2.1-1.5,2.2-1.3,2.7c0.5,1.2,0.6,1.3,0.9,0.9c0.1-0.1,0.1-0.2,0.2-0.3c0.7-1.2,1.5-2.3,2.7-3.7
		C49.4,8.3,49.3,8.1,49.7,7.7"/>
	<path fill="#BED631" d="M52.6,18.6c0.5-0.9,1.7-2.3,3.9-4.8c1.3-1.4,1.3-1.4,4.9-4.9c-0.6-0.5-0.9-0.9-1.1-1.1
		c-0.2-0.2-0.3-0.3-0.5-0.3c-0.2,0-0.3,0.1-0.4,0.2C59.3,7.9,59.2,8,59,8.1c-2.3,2.2-4.7,4.5-7.1,7.7c-0.8,1.2-0.9,1.2-0.5,1.6
		C51.8,17.8,52.3,18.3,52.6,18.6"/>
	<path fill="#2CB781" d="M67.5,3.4c-0.1,0-0.2,0.1-0.2,0.2c-1.6,2.8-3.5,4.6-3.5,4.6c-0.5,0.5-1.1-0.4-1.6,0l-0.7,0.7
		c-3.6,3.5-3.6,3.5-4.9,4.9c-2.3,2.5-3.4,3.9-3.9,4.8c-0.6,1-0.4,1.3-0.3,1.4c1.1,1,1.2,1,1.4,0.7c0.1-0.1,0.2-0.2,0.2-0.3
		c1.2-1.7,2.4-3.1,5-5.7c0.3-0.3,0.7-0.7,1.1-1.1c2.2-2.1,5.1-5.2,6.6-7.3c0.8-1.1,1.1-1.7,1.4-2.4C68.2,3.7,67.9,3.4,67.5,3.4"/>
	<path fill="#BED631" d="M58.4,21.7c-1.2,1.3-1.9,2.3-2.6,3.5c0,0,0.7,0.5,1.1,0.8c0.2,0.1,0.4,0.1,0.5-0.1c0.7-0.9,1.4-1.8,2.1-2.6
		c0.1-0.1,0.2-0.4,0-0.6C59.2,22.4,58.8,22,58.4,21.7"/>
	<path fill="#2CB781" d="M61.9,1.3c-0.1,0-0.2,0-0.3,0.1c-3.2,3.2-3.3,3.2-3.7,2.8c-0.2-0.1-0.4-0.2-0.7,0c-0.5,0.5-1.3,1.1-1.8,1.6
		c-3.7,3.4-5.3,5.2-6.7,7.5c1.2,1.7,1.2,1.7,1.5,1.3c0.1-0.1,0.2-0.3,0.3-0.4c1.7-2.4,3.2-4,7-7.6c0.4-0.4,0.8-0.8,1.3-1.2
		c0.7-0.7,3-2.8,3.5-3.3C62.5,1.7,62.2,1.3,61.9,1.3"/>
	<path fill="#0D3050" d="M57.5,6.6c-3.9,3.6-5.3,5.2-7,7.6c0.4,0.5,1,1.2,1.4,1.7c2.4-3.2,4.8-5.5,7.1-7.7C58.6,7.6,58,7,57.5,6.6"
		/>
	<path fill="#2CB781" d="M66.2,14.2c1.3-1.3,1.2-1.5,0.9-1.9c-0.3-0.4-0.8-0.9-1.2-1.3c-3.3,3.7-7.4,6.7-10.3,10.8
		c-0.5,0.7-0.8,1.2-1,1.6c-0.6,1-0.4,1.2-0.1,1.4c0.3,0.2,0.9,0.6,0.9,0.7c0.1,0.1,0.2,0,0.3-0.1c0,0,0-0.1,0.1-0.1
		c0.8-1.3,1.5-2.2,2.6-3.5c0.4-0.4,1.3-1.3,1.7-1.7c0.4,0.4,0.9,0.8,1.1,1c0.2,0.2,0.5,0.3,0.7,0c0.4-0.4,2.4-2.2,2.8-2.6
		c0.2-0.2,0.2-0.5,0.1-0.7c-0.3-0.4-0.7-0.7-1.1-1.2C64.6,15.7,65.4,14.9,66.2,14.2"/>
	<path fill="#0D3050" d="M65.9,11c0.2-0.2,0.4-0.5,0.5-0.6c0.2-0.3,0-0.6-0.3-0.7c-0.2-0.2-0.5-0.1-0.7,0.1
		c-1.5,1.7-3.9,4.2-5.3,5.4c-0.3,0.2-0.6,0.2-0.8,0L59,14.7c-2.6,2.6-3.8,4-5,5.7c0.5,0.4,1.1,1,1.6,1.4
		C58.5,17.7,62.6,14.8,65.9,11"/>
</g>
<g>
</g>
<g>
</g>
<g>
</g>
<g>
</g>
<g>
</g>
<g>
</g>
<g>
</g>
<g>
</g>
<g>
</g>
<g>
</g>
<g>
</g>
<g>
</g>
<g>
</g>
<g>
</g>
<g>
</g>
</svg>
