<svg xmlns="http://www.w3.org/2000/svg" viewBox="0 0 79.13 79.12"><defs><style>.cls-1{opacity:0.2;}.cls-2{fill:#fff;}</style></defs><title>Ativo 2</title><g id="Camada_2" data-name="Camada 2"><g id="Camada_1-2" data-name="Camada 1"><g class="cls-1"><path class="cls-2" d="M39.56,0A39.56,39.56,0,1,0,79.12,39.56,39.56,39.56,0,0,0,39.56,0m0,72.16a32.6,32.6,0,1,1,32.6-32.6,32.6,32.6,0,0,1-32.6,32.6"/><path class="cls-2" d="M33.17,39.13c0-3.65,0-7.3,0-11,0-1,0-1.94,1.09-2.53s1.88.06,2.66.62q7.65,5.54,15.28,11.1c1.52,1.12,1.59,2.41.07,3.53C47,44.77,41.71,48.57,36.43,52.41a1.94,1.94,0,0,1-2.25.24,2.12,2.12,0,0,1-1-2c0-3.83,0-7.65,0-11.47"/></g></g></g></svg>