<?xml version="1.0" standalone="no"?>
<!DOCTYPE svg PUBLIC "-//W3C//DTD SVG 20010904//EN"
 "http://www.w3.org/TR/2001/REC-SVG-20010904/DTD/svg10.dtd">
<svg version="1.0" xmlns="http://www.w3.org/2000/svg"
 width="260.000000pt" height="260.000000pt" viewBox="0 0 260.000000 260.000000"
 preserveAspectRatio="xMidYMid meet">
<metadata>
Created by potrace 1.11, written by Peter Selinger 2001-2013
</metadata>
<g transform="translate(0.000000,260.000000) scale(0.100000,-0.100000)"
fill="#000000" stroke="none">
<path d="M1970 2460 c0 -17 -73 -160 -82 -160 -4 0 -8 -6 -8 -12 -1 -19 -108
-149 -216 -262 -52 -54 -94 -105 -94 -113 0 -28 21 -53 45 -53 24 0 57 28 140
121 132 146 210 255 257 356 34 73 35 88 11 116 -17 18 -53 23 -53 7z"/>
<path d="M2327 2417 c12 -64 8 -213 -5 -230 -7 -7 -10 -16 -7 -19 7 -7 -57
-156 -89 -206 -37 -59 -41 -83 -16 -110 26 -28 34 -28 60 0 27 29 104 188 116
241 1 4 3 8 4 10 1 1 4 11 6 22 1 11 5 31 9 45 6 29 8 136 1 165 -11 51 -39
103 -62 113 -24 12 -24 12 -17 -31z"/>
<path d="M1516 2254 c-54 -52 -123 -115 -152 -140 -54 -43 -56 -44 -84 -29
-16 8 -37 15 -47 15 -10 0 -54 -34 -98 -75 -44 -41 -82 -74 -85 -74 -3 0 -24
25 -48 55 -36 45 -47 54 -65 48 -26 -8 -71 -49 -263 -239 -79 -77 -142 -138
-142 -135 1 3 -4 18 -10 33 -9 20 -9 34 -2 48 10 18 195 201 293 289 37 34 47
49 45 69 -2 21 -8 25 -26 23 -13 -1 -29 -8 -36 -15 -7 -6 -34 -30 -60 -52 -27
-22 -68 -59 -91 -82 l-43 -42 -27 55 c-15 30 -31 54 -36 54 -12 0 -170 -158
-223 -223 -41 -51 -43 -64 -16 -157 l13 -45 -57 -84 c-31 -47 -59 -95 -62
-107 -6 -23 36 -127 57 -140 8 -4 18 1 27 14 14 21 15 20 54 -41 22 -34 42
-64 43 -65 2 -2 13 -1 25 3 12 4 19 9 16 13 -3 3 1 13 10 23 16 17 19 15 66
-46 28 -36 54 -65 59 -65 4 0 20 12 33 27 l25 27 38 -44 c21 -25 49 -57 63
-71 l26 -26 -31 -49 c-16 -27 -31 -56 -32 -64 -2 -9 24 -42 57 -75 58 -57 70
-80 51 -100 -14 -17 -31 -75 -20 -75 5 0 9 -6 9 -12 1 -16 90 -88 108 -88 8 0
21 9 31 21 17 21 17 21 65 -23 27 -23 57 -49 67 -56 26 -18 24 -25 -20 -90
-44 -65 -85 -142 -75 -142 4 0 1 -6 -5 -14 -10 -12 -2 -23 46 -60 52 -41 104
-62 88 -36 -7 11 27 1 35 -10 6 -8 88 -60 94 -60 10 0 56 48 56 58 0 6 3 12 8
14 4 1 33 36 65 75 32 40 68 83 80 96 12 13 23 28 24 34 2 12 -22 39 -80 91
l-37 33 76 74 76 75 63 -56 c44 -38 70 -54 82 -50 30 10 278 246 287 273 6 17
-3 30 -70 105 -13 15 -24 33 -24 38 0 6 51 61 113 123 143 143 187 195 187
222 0 23 -14 41 -82 113 l-41 43 26 27 c31 33 34 62 9 85 -30 27 -55 20 -97
-30 -22 -25 -135 -142 -251 -260 -207 -210 -210 -213 -240 -203 -16 6 -35 20
-43 31 -12 20 -6 28 81 114 137 135 291 298 423 446 17 19 49 57 70 84 22 28
43 52 46 55 40 33 179 258 179 289 0 22 -36 52 -54 45 -6 -2 -38 -46 -71 -97
-71 -109 -200 -272 -250 -315 -36 -32 -48 -34 -99 -13 -32 13 -49 5 -98 -43
l-27 -27 -58 56 c-69 66 -95 76 -127 46 -12 -11 -26 -21 -30 -21 -4 0 -36 29
-71 65 -52 53 -61 67 -51 77 7 7 62 58 122 113 60 55 153 144 206 197 94 92
98 98 87 122 -21 46 -49 33 -153 -70z"/>
<path d="M1155 2330 c-31 -13 -170 -134 -172 -150 -2 -8 1 -21 6 -29 13 -20
50 -7 96 34 22 20 59 54 83 75 39 35 42 40 30 59 -14 23 -15 23 -43 11z"/>
<path d="M2268 1663 c-10 -3 -18 -11 -18 -19 0 -8 -4 -14 -10 -14 -5 0 -10 -7
-10 -15 0 -8 -4 -15 -8 -15 -13 0 -40 -54 -36 -75 3 -21 30 -45 51 -45 7 0 31
24 53 54 30 39 41 62 38 82 -3 30 -34 53 -60 47z"/>
</g>
</svg>
